<?xml version="1.0" standalone="no"?>
<!DOCTYPE svg PUBLIC "-//W3C//DTD SVG 20010904//EN"
 "http://www.w3.org/TR/2001/REC-SVG-20010904/DTD/svg10.dtd">
<svg version="1.0" xmlns="http://www.w3.org/2000/svg"
 width="300.000000pt" height="90.000000pt" viewBox="0 0 300.000000 90.000000"
 preserveAspectRatio="xMidYMid meet">

<g transform="translate(0.000000,90.000000) scale(0.100000,-0.100000)"
fill="#000000" stroke="none">
<path d="M300 452 c0 -148 2 -271 4 -273 2 -2 28 -3 58 -1 l53 4 38 64 c21 35
35 69 31 76 -4 7 -3 8 4 4 7 -4 12 -2 12 3 0 6 10 11 23 11 24 0 34 -13 80
-102 16 -32 35 -58 41 -58 7 0 32 36 57 80 56 101 73 104 117 22 l31 -57 1 56
c0 37 -4 59 -13 62 -7 2 -25 31 -41 62 l-28 58 -35 -62 c-24 -42 -40 -61 -54
-61 -41 0 -32 30 50 163 14 23 30 37 40 35 9 -2 31 -28 48 -58 l33 -54 0 147
0 147 -275 0 -275 0 0 -268z m378 241 c-65 -2 -171 -2 -236 0 -64 1 -11 3 118
3 129 0 182 -2 118 -3z m5 -20 c-67 -2 -179 -2 -250 0 -70 1 -15 3 122 3 138
0 195 -2 128 -3z m105 -111 c-8 -9 -14 -9 -24 -1 -10 8 -16 4 -28 -18 -18 -32
-21 -25 -5 10 8 18 18 24 39 23 22 -1 26 -4 18 -14z m39 -39 c-3 -10 -5 -2 -5
17 0 19 2 27 5 18 2 -10 2 -26 0 -35z m-323 5 c22 36 60 -6 122 -138 l21 -46
-25 -2 c-27 -2 -39 10 -73 76 l-22 42 -34 -60 c-24 -42 -40 -60 -54 -60 -34 0
-32 27 10 98 27 46 38 77 35 93 -4 20 -3 21 4 5 6 -14 11 -16 16 -8z m196 -28
c0 -5 -5 -10 -11 -10 -5 0 -7 5 -4 10 3 6 8 10 11 10 2 0 4 -4 4 -10z m-278
-12 c-7 -7 -12 -21 -12 -32 0 -10 -3 -17 -6 -13 -10 10 5 57 18 57 9 0 9 -3 0
-12z m38 8 c0 -3 -4 -8 -10 -11 -5 -3 -10 -1 -10 4 0 6 5 11 10 11 6 0 10 -2
10 -4z m180 -8 c0 -9 4 -8 10 2 8 13 10 13 10 -1 0 -9 -8 -20 -17 -23 -10 -4
-14 -4 -10 0 4 4 2 13 -4 21 -9 9 -8 13 0 13 6 0 11 -6 11 -12z m-22 -33 c-3
-3 -9 2 -12 12 -6 14 -5 15 5 6 7 -7 10 -15 7 -18z m-187 -19 c-14 -36 -22
-33 -9 5 6 16 12 28 14 26 3 -2 0 -16 -5 -31z m352 -53 c7 -9 5 -13 -7 -13
-11 0 -16 8 -15 28 0 15 3 21 6 12 3 -8 10 -21 16 -27z m-233 -15 c0 -6 -7 -5
-15 2 -8 7 -15 17 -15 22 0 6 7 5 15 -2 8 -7 15 -17 15 -22z m173 -33 c-3 -9
-8 -14 -10 -11 -3 3 -2 9 2 15 9 16 15 13 8 -4z m-103 -79 c0 -14 11 -20 32
-17 4 0 5 -6 2 -13 -8 -22 -33 -8 -41 23 -3 14 -14 38 -24 53 -11 14 -19 30
-19 34 0 5 11 -8 25 -28 14 -20 25 -44 25 -52z m200 74 c0 -5 -2 -10 -4 -10
-3 0 -8 5 -11 10 -3 6 -1 10 4 10 6 0 11 -4 11 -10z m-163 -37 c-3 -10 -5 -4
-5 12 0 17 2 24 5 18 2 -7 2 -21 0 -30z m-227 6 c0 -5 -4 -9 -10 -9 -5 0 -10
7 -10 16 0 8 5 12 10 9 6 -3 10 -10 10 -16z m22 -1 c-7 -7 -12 -8 -12 -2 0 14
12 26 19 19 2 -3 -1 -11 -7 -17z m188 -11 c0 -5 -4 -5 -10 -2 -5 3 -10 14 -10
23 0 15 2 15 10 2 5 -8 10 -19 10 -23z m60 13 c0 -5 -4 -10 -10 -10 -5 0 -10
5 -10 10 0 6 5 10 10 10 6 0 10 -4 10 -10z m137 -12 c-3 -8 -6 -5 -6 6 -1 11
2 17 5 13 3 -3 4 -12 1 -19z m-405 -50 c-7 -7 -10 -5 -7 8 5 29 6 30 12 16 3
-8 1 -18 -5 -24z m245 17 c0 -8 -4 -12 -9 -9 -4 3 -8 9 -8 15 0 5 4 9 8 9 5 0
9 -7 9 -15z m-270 -37 c-3 -8 -6 -5 -6 6 -1 11 2 17 5 13 3 -3 4 -12 1 -19z
m-66 -1 c-1 -12 -15 -9 -19 4 -3 6 1 10 8 8 6 -3 11 -8 11 -12z"/>
<path d="M1420 621 c0 -14 -90 -111 -103 -111 -6 0 8 20 32 44 l43 44 -32 7
c-25 5 -39 2 -59 -13 -29 -22 -33 -56 -10 -110 12 -30 12 -33 -9 -48 -27 -19
-29 -44 -3 -51 32 -8 5 -49 -56 -84 -29 -17 -55 -34 -58 -39 -12 -20 16 -18
66 4 30 13 65 27 79 31 l25 7 -22 -24 c-28 -30 -31 -64 -5 -53 54 22 57 18 64
-89 2 -22 9 -41 16 -44 9 -3 12 18 12 82 0 47 3 86 8 86 4 0 22 9 41 21 32 19
32 21 16 39 -17 18 -16 20 16 34 19 8 42 17 52 20 10 3 15 11 11 17 -6 11 -42
9 -104 -6 -20 -5 -19 -2 8 12 32 17 41 36 22 48 -6 4 -8 15 -5 26 10 31 -4 42
-32 24 -31 -21 -40 -14 -13 10 11 10 20 28 20 40 0 12 9 30 20 40 29 27 25 45
-10 45 -16 0 -30 -4 -30 -9z m-66 -186 c-4 -8 -10 -15 -15 -15 -5 0 -9 7 -9
15 0 8 7 15 15 15 9 0 12 -6 9 -15z m56 -10 c0 -8 -7 -15 -15 -15 -16 0 -20
12 -8 23 11 12 23 8 23 -8z"/>
<path d="M1141 595 c-1 -7 -17 -9 -38 -7 -22 2 -33 0 -26 -5 6 -4 10 -23 9
-41 -2 -31 3 -36 42 -35 6 1 12 -3 12 -8 0 -5 5 -9 11 -9 6 0 8 7 5 17 -6 15
-4 15 14 -2 11 -10 20 -13 20 -7 0 6 -5 14 -11 17 -6 4 -8 13 -5 20 2 7 -3 16
-12 20 -15 6 -15 8 3 15 16 7 17 9 3 9 -9 1 -19 7 -21 14 -3 6 -6 7 -6 2z
m-21 -26 c0 -5 5 -7 10 -4 6 3 10 1 10 -4 0 -13 -3 -13 -24 -5 -18 7 -22 24
-6 24 6 0 10 -5 10 -11z m8 -41 c-5 -15 -23 -11 -26 6 -2 11 2 14 13 10 9 -4
14 -11 13 -16z"/>
<path d="M1835 550 c-20 -13 -33 -16 -41 -9 -17 14 -21 3 -30 -69 -4 -39 -11
-62 -19 -62 -9 0 -11 17 -7 65 5 63 4 65 -19 65 -39 0 -66 -25 -73 -68 -7 -47
-30 -72 -49 -53 -9 9 -7 16 12 30 23 17 23 21 11 50 -15 38 -23 39 -46 4 -15
-22 -19 -47 -19 -120 0 -60 -4 -96 -12 -104 -19 -19 -16 -47 7 -59 23 -12 28
-4 60 114 28 98 44 109 35 24 -8 -72 1 -146 15 -132 5 5 10 34 11 64 1 30 4
61 7 68 6 18 52 15 52 -3 0 -8 -5 -15 -11 -15 -6 0 -8 -7 -5 -16 4 -9 1 -23
-5 -30 -6 -8 -8 -21 -5 -30 5 -13 14 -15 41 -10 32 6 41 3 83 -34 43 -38 47
-40 59 -23 8 9 10 24 6 33 -4 8 -8 87 -8 174 -1 90 -5 161 -11 163 -5 1 -22
-6 -39 -17z m15 -80 c0 -37 -8 -49 -23 -33 -4 3 -2 12 5 20 8 10 8 17 0 25
-16 16 -15 28 3 28 11 0 15 -11 15 -40z m-150 -44 c0 -8 -4 -18 -10 -21 -5 -3
-10 3 -10 14 0 12 5 21 10 21 6 0 10 -6 10 -14z m136 -36 c11 0 14 -16 14 -65
0 -52 -3 -65 -15 -65 -9 0 -20 11 -25 25 -5 14 -15 25 -21 25 -6 0 -9 6 -6 14
3 7 1 18 -5 24 -13 13 13 54 30 47 8 -3 20 -5 28 -5z"/>
<path d="M2048 559 c-21 -12 -130 -235 -126 -257 5 -27 25 -24 32 5 5 19 10
23 16 14 5 -9 18 -12 36 -7 l29 6 -24 -14 c-23 -13 -23 -14 -5 -24 18 -10 18
-11 -4 -32 -26 -25 -25 -44 5 -48 13 -2 38 15 72 46 l52 49 -1 -36 c-4 -85 14
-95 56 -31 30 45 33 46 75 24 31 -16 59 -13 59 6 0 6 -17 18 -37 27 -21 10
-40 19 -42 20 -3 2 5 17 18 33 23 33 20 55 -8 47 -16 -4 -17 1 -4 72 7 44 9
79 4 84 -8 8 -91 -15 -110 -30 -12 -9 23 -30 44 -25 18 3 25 0 25 -12 0 -20
-2 -20 -47 -1 l-35 15 4 -90 c2 -49 2 -88 0 -85 -3 2 -19 -3 -36 -12 -31 -16
-31 -15 -13 4 22 25 22 33 0 33 -14 0 -13 3 5 16 27 19 29 38 3 31 -13 -3 -18
0 -15 8 9 22 -14 27 -45 11 l-29 -16 26 48 c26 45 27 46 30 20 3 -29 17 -35
42 -18 13 9 11 14 -11 33 l-25 23 20 16 21 16 -20 21 c-15 15 -24 17 -37 10z
m162 -138 c0 -5 -9 -11 -20 -14 -22 -6 -28 8 -7 16 19 8 27 8 27 -2z m-10 -61
c-15 -11 -26 -15 -29 -8 -4 12 17 28 39 28 10 0 7 -7 -10 -20z m5 -30 c-3 -5
-11 -10 -16 -10 -6 0 -7 5 -4 10 3 6 11 10 16 10 6 0 7 -4 4 -10z"/>
<path d="M2406 533 c-14 -21 -34 -49 -45 -63 -24 -29 -28 -70 -7 -70 8 0 18 5
21 10 3 6 10 10 15 10 14 0 0 -31 -32 -73 -16 -21 -27 -45 -24 -53 7 -18 20
-18 36 1 19 23 30 8 20 -26 -10 -33 2 -69 21 -69 13 0 34 51 49 122 11 48 16
56 29 48 10 -5 24 -4 34 2 36 20 48 3 45 -64 l-3 -63 -30 3 -30 2 38 -35 c63
-60 73 -48 68 76 -3 104 -3 106 20 112 13 4 34 7 47 7 27 0 29 25 4 39 -17 9
-109 -13 -186 -44 -16 -7 -17 -5 -11 16 6 18 4 21 -5 13 -8 -9 -18 -9 -36 0
-29 13 -30 18 -4 41 23 21 25 52 5 78 -13 18 -15 17 -39 -20z m26 -185 c-7 -7
-12 -8 -12 -2 0 14 12 26 19 19 2 -3 -1 -11 -7 -17z"/>
<path d="M2544 518 c-18 -8 -44 -46 -44 -62 0 -2 31 5 70 17 62 18 68 22 59
38 -11 21 -51 24 -85 7z"/>
<path d="M1093 440 c14 -22 14 -27 1 -44 -19 -27 -18 -45 2 -20 12 15 15 16
10 2 -3 -12 3 -18 24 -23 34 -8 54 1 46 21 -3 8 -1 14 3 14 5 0 7 9 4 20 -4
14 -14 20 -37 21 l-31 2 35 6 35 7 -33 5 c-18 3 -35 2 -38 -3 -3 -5 -13 -3
-22 4 -14 12 -14 10 1 -12z"/>
<path d="M1075 420 c3 -5 11 -10 16 -10 6 0 7 5 4 10 -3 6 -11 10 -16 10 -6 0
-7 -4 -4 -10z"/>
<path d="M503 223 l-22 -43 44 0 c35 0 43 3 39 15 -4 8 -11 12 -17 8 -5 -3 -7
-1 -4 4 4 6 1 22 -6 35 -12 23 -12 23 -34 -19z m27 -8 c0 -8 -4 -15 -10 -15
-5 0 -7 7 -4 15 4 8 8 15 10 15 2 0 4 -7 4 -15z"/>
<path d="M761 259 c-1 -9 -10 -28 -21 -42 -11 -14 -20 -28 -20 -31 0 -3 20 -6
45 -6 25 0 45 3 45 6 0 3 -8 18 -19 32 -10 15 -21 34 -24 42 -5 13 -6 12 -6
-1z m9 -44 c0 -8 -4 -15 -10 -15 -5 0 -7 7 -4 15 4 8 8 15 10 15 2 0 4 -7 4
-15z"/>
</g>
</svg>
